<?xml version="1.0" standalone="no"?>
<!DOCTYPE svg PUBLIC "-//W3C//DTD SVG 20010904//EN"
 "http://www.w3.org/TR/2001/REC-SVG-20010904/DTD/svg10.dtd">
<svg version="1.0" xmlns="http://www.w3.org/2000/svg"
 width="200.000000pt" height="200.000000pt" viewBox="0 0 200.000000 200.000000"
 preserveAspectRatio="xMidYMid meet">
<metadata>
Created by potrace 1.14, written by Peter Selinger 2001-2017
</metadata>
<g transform="translate(0.000000,200.000000) scale(0.100000,-0.100000)"
fill="#000000" stroke="none">
<path d="M0 1000 l0 -1000 1000 0 1000 0 0 1000 0 1000 -1000 0 -1000 0 0
-1000z m1920 0 l0 -920 -920 0 -920 0 0 920 0 920 920 0 920 0 0 -920z"/>
<path d="M913 1433 c3 -4 1 -18 -4 -30 -5 -15 -14 -21 -29 -18 -17 3 -20 -1
-20 -27 0 -27 -3 -30 -25 -26 -24 5 -32 -9 -26 -44 1 -8 -13 -11 -40 -9 -11 1
-16 -6 -16 -21 -1 -83 -2 -87 -30 -90 -23 -3 -27 -7 -26 -35 3 -78 1 -76 28
-71 18 4 25 1 26 -11 0 -9 1 -34 2 -56 2 -35 5 -40 27 -40 21 -1 25 -5 24 -28
-1 -23 3 -27 27 -27 23 0 28 -5 31 -27 2 -23 7 -27 26 -25 19 3 22 -1 22 -27
0 -26 -4 -31 -25 -31 -20 0 -25 -5 -25 -25 0 -15 -6 -25 -15 -26 -19 -1 -136
-1 -174 0 -24 1 -29 5 -26 21 5 26 -10 34 -62 31 -46 -2 -44 -6 -47 69 -1 30
-5 35 -27 38 l-27 3 1 107 1 107 -27 -1 c-23 0 -27 4 -27 28 0 25 -4 28 -31
28 -22 0 -30 -4 -26 -13 7 -19 -9 -42 -30 -42 -16 0 -18 -11 -21 -82 l-3 -81
26 2 c14 2 25 -2 26 -8 1 -6 1 -44 2 -83 l1 -73 28 0 c23 0 28 -4 28 -25 0
-24 9 -30 38 -26 10 2 17 -26 13 -52 -1 -4 11 -6 26 -5 19 2 28 -2 29 -12 0
-8 2 -20 2 -27 1 -7 23 -13 55 -15 48 -3 52 -5 52 -27 0 -24 3 -25 72 -26 73
-1 96 4 92 21 -5 28 3 34 51 34 28 0 51 5 51 10 1 6 3 15 4 20 1 6 3 14 4 18
0 5 24 7 51 6 50 -3 58 4 51 48 0 4 23 7 52 6 47 -2 52 -5 57 -28 3 -17 12
-25 25 -25 24 0 34 -12 30 -37 -4 -16 4 -18 81 -18 46 0 83 3 83 8 -5 32 3 49
23 48 16 -1 24 6 28 24 4 15 15 26 30 30 18 4 25 12 24 28 -1 21 11 27 44 23
8 -1 13 6 12 16 -4 32 0 40 18 40 35 0 39 3 34 28 -4 22 -1 25 26 25 30 0 30
0 29 52 -2 36 2 53 11 54 6 1 19 2 27 3 12 1 15 17 15 81 l0 80 -56 0 c-52 0
-56 -2 -51 -20 6 -22 -18 -41 -40 -33 -10 3 -13 -11 -13 -51 0 -53 -1 -56 -25
-56 -14 0 -26 -6 -27 -12 -1 -13 -4 -45 -7 -80 -1 -12 -9 -18 -26 -18 -20 0
-25 -5 -25 -25 0 -14 -6 -26 -12 -26 -7 -1 -31 -2 -53 -3 -35 -1 -40 -4 -43
-28 -3 -24 -7 -26 -53 -26 -31 -1 -50 4 -51 11 0 7 -2 19 -2 27 -1 9 -11 15
-26 15 -20 0 -26 6 -28 28 -3 24 0 27 26 27 25 0 29 3 27 25 -2 16 2 25 11 26
8 1 20 2 27 3 7 1 13 19 13 50 2 49 15 69 41 59 10 -4 13 13 13 80 0 85 0 85
-25 82 -23 -2 -32 14 -22 42 1 4 -11 10 -28 13 -22 4 -30 11 -30 25 0 14 -8
21 -27 23 -24 3 -28 8 -28 34 0 25 -3 29 -20 25 -21 -5 -34 7 -35 33 0 12 -17
16 -83 18 -46 2 -82 -1 -79 -5z m163 -182 c-1 -22 3 -26 27 -25 l27 1 0 -108
0 -108 -27 -3 c-22 -2 -28 -8 -28 -28 0 -15 -6 -26 -15 -26 -8 -1 -21 -2 -28
-3 -7 0 -12 -7 -11 -13 4 -32 -2 -39 -28 -36 -22 2 -28 8 -28 28 0 20 -4 24
-23 22 -18 -3 -23 3 -28 27 -5 24 -12 31 -30 31 -24 0 -24 1 -24 105 0 108 2
113 43 106 6 -1 11 29 9 50 -1 4 36 6 82 6 82 -1 83 -1 82 -26z"/>
</g>
</svg>
