<svg width="11" height="11" viewBox="0 0 11 11" fill="none" xmlns="http://www.w3.org/2000/svg">
<rect x="1" y="1" width="1" height="1" fill="black"/>
<rect x="1" y="3" width="1" height="1" fill="black"/>
<rect x="1" y="5" width="1" height="1" fill="black"/>
<rect x="1" y="7" width="1" height="1" fill="black"/>
<rect x="1" y="9" width="1" height="1" fill="black"/>
<rect x="2" y="2" width="1" height="1" fill="black"/>
<rect y="2" width="1" height="1" fill="black"/>
<rect x="2" width="1" height="1" fill="black"/>
<rect width="1" height="1" fill="black"/>
<rect x="2" y="4" width="1" height="1" fill="black"/>
<rect y="4" width="1" height="1" fill="black"/>
<rect x="2" y="6" width="1" height="1" fill="black"/>
<rect y="6" width="1" height="1" fill="black"/>
<rect x="2" y="8" width="1" height="1" fill="black"/>
<rect y="8" width="1" height="1" fill="black"/>
<rect x="2" y="10" width="1" height="1" fill="black"/>
<rect y="10" width="1" height="1" fill="black"/>
<rect x="3" y="1" width="1" height="1" fill="black"/>
<rect x="3" y="3" width="1" height="1" fill="black"/>
<rect x="3" y="5" width="1" height="1" fill="black"/>
<rect x="3" y="7" width="1" height="1" fill="black"/>
<rect x="3" y="9" width="1" height="1" fill="black"/>
<rect x="4" y="2" width="1" height="1" fill="black"/>
<rect x="4" width="1" height="1" fill="black"/>
<rect x="4" y="4" width="1" height="1" fill="black"/>
<rect x="4" y="6" width="1" height="1" fill="black"/>
<rect x="4" y="8" width="1" height="1" fill="black"/>
<rect x="4" y="10" width="1" height="1" fill="black"/>
<rect x="5" y="1" width="1" height="1" fill="black"/>
<rect x="5" y="3" width="1" height="1" fill="black"/>
<rect x="5" y="5" width="1" height="1" fill="black"/>
<rect x="5" y="7" width="1" height="1" fill="black"/>
<rect x="5" y="9" width="1" height="1" fill="black"/>
<rect x="6" y="2" width="1" height="1" fill="black"/>
<rect x="6" width="1" height="1" fill="black"/>
<rect x="6" y="4" width="1" height="1" fill="black"/>
<rect x="6" y="6" width="1" height="1" fill="black"/>
<rect x="6" y="8" width="1" height="1" fill="black"/>
<rect x="6" y="10" width="1" height="1" fill="black"/>
<rect x="7" y="1" width="1" height="1" fill="black"/>
<rect x="7" y="3" width="1" height="1" fill="black"/>
<rect x="7" y="5" width="1" height="1" fill="black"/>
<rect x="7" y="7" width="1" height="1" fill="black"/>
<rect x="7" y="9" width="1" height="1" fill="black"/>
<rect x="8" y="2" width="1" height="1" fill="black"/>
<rect x="8" width="1" height="1" fill="black"/>
<rect x="8" y="4" width="1" height="1" fill="black"/>
<rect x="8" y="6" width="1" height="1" fill="black"/>
<rect x="8" y="8" width="1" height="1" fill="black"/>
<rect x="8" y="10" width="1" height="1" fill="black"/>
<rect x="9" y="1" width="1" height="1" fill="black"/>
<rect x="9" y="3" width="1" height="1" fill="black"/>
<rect x="9" y="5" width="1" height="1" fill="black"/>
<rect x="9" y="7" width="1" height="1" fill="black"/>
<rect x="9" y="9" width="1" height="1" fill="black"/>
<rect x="10" y="2" width="1" height="1" fill="black"/>
<rect x="10" width="1" height="1" fill="black"/>
<rect x="10" y="4" width="1" height="1" fill="black"/>
<rect x="10" y="6" width="1" height="1" fill="black"/>
<rect x="10" y="8" width="1" height="1" fill="black"/>
<rect x="10" y="10" width="1" height="1" fill="black"/>
</svg>
