<svg width="34" height="18" viewBox="0 0 34 18" fill="none" xmlns="http://www.w3.org/2000/svg">
<path d="M19.125 2.25H20.25V3.375H19.125V2.25Z" fill="black"/>
<path d="M14.625 5.625H15.75V6.75H14.625V5.625Z" fill="black"/>
<path fill-rule="evenodd" clip-rule="evenodd" d="M0 2.25V3.375V4.5V5.625V6.75V7.875V9V10.125V11.25V12.375V13.5V14.625V15.75V16.875V18H1.125H2.25H3.375V16.875H4.5H5.625H6.75V15.75H7.875V14.625H6.75V13.5V12.375V11.25V10.125V9V7.875V6.75V5.625V4.5H7.875V3.375H6.75V2.25H5.625H4.5H3.375V1.125H2.25H1.125H0V2.25ZM3.375 10.125V9V7.875V6.75V5.625V4.5V3.375H4.5H5.625V4.5V5.625V6.75V7.875V9V10.125V11.25V12.375V13.5V14.625V15.75H4.5H3.375V14.625V13.5V12.375V11.25V10.125Z" fill="black"/>
<path d="M9 15.75H7.875V16.875H9H10.125H11.25V15.75H10.125H9Z" fill="black"/>
<path d="M12.375 16.875H11.25V18H12.375H13.5H14.625H15.75H16.875V16.875H15.75H14.625H13.5H12.375Z" fill="black"/>
<path d="M9 2.25H7.875V3.375H9H10.125V2.25H9Z" fill="black"/>
<path d="M11.25 1.125H10.125V2.25H11.25H12.375V1.125H11.25Z" fill="black"/>
<path d="M13.5 0H12.375V1.125H13.5H14.625H15.75H16.875H18H19.125H20.25H21.375H22.5V0H21.375H20.25H19.125H18H16.875H15.75H14.625H13.5Z" fill="black"/>
<path d="M28.125 1.125H27H25.875H24.75H23.625H22.5V2.25H23.625H24.75H25.875H27H28.125V1.125Z" fill="black"/>
<path d="M22.5 3.375H21.375H20.25V4.5H21.375H22.5V3.375Z" fill="black"/>
<path d="M25.875 7.875V6.75H27H28.125H29.25H30.375H31.5H32.625V5.625H31.5H30.375H29.25H28.125H27H25.875V4.5H24.75H23.625H22.5V5.625H23.625H24.75V6.75V7.875H25.875Z" fill="black"/>
<path d="M24.75 11.25V10.125V9V7.875H23.625H22.5H21.375H20.25V9H21.375H22.5H23.625V10.125V11.25H24.75Z" fill="black"/>
<path d="M16.875 10.125V9V7.875H18H19.125H20.25V6.75H19.125H18H16.875H15.75V7.875V9V10.125H16.875Z" fill="black"/>
<path d="M18 10.125H16.875V11.25H18H19.125V10.125H18Z" fill="black"/>
<path d="M20.25 11.25H19.125V12.375H20.25H21.375V13.5H22.5V12.375H23.625V11.25H22.5H21.375H20.25Z" fill="black"/>
<path d="M21.375 15.75V14.625V13.5H20.25H19.125H18V14.625H19.125H20.25V15.75H21.375Z" fill="black"/>
<path d="M18 12.375H16.875H15.75V13.5H16.875H18V12.375Z" fill="black"/>
<path d="M15.75 12.375V11.25V10.125H14.625V11.25V12.375H15.75Z" fill="black"/>
<path d="M14.625 14.625V13.5V12.375H13.5V13.5V14.625H14.625Z" fill="black"/>
<path d="M16.875 14.625H15.75H14.625V15.75H15.75H16.875V14.625Z" fill="black"/>
<path d="M18 15.75H16.875V16.875H18H19.125H20.25V15.75H19.125H18Z" fill="black"/>
<path d="M32.625 2.25H31.5H30.375H29.25H28.125V3.375H29.25H30.375H31.5H32.625V2.25Z" fill="black"/>
<path d="M33.75 5.625V4.5V3.375H32.625V4.5V5.625H33.75Z" fill="black"/>
</svg>
